{
  "accessors": [
    {
      "bufferView": 2,
      "componentType": 5126,
      "count": 723,
      "max": [
        -28.384113311767578,
        26.38423728942871,
        9.007247924804688
      ],
      "min": [
        -62.63462448120117,
        -0.3694114685058594,
        -23.48155975341797
      ],
      "type": "VEC3"
    },
    {
      "bufferView": 2,
      "byteOffset": 8676,
      "componentType": 5126,
      "count": 723,
      "max": [
        1.0,
        1.0,
        1.0
      ],
      "min": [
        -1.0,
        -1.0,
        -1.0
      ],
      "type": "VEC3"
    },
    {
      "bufferView": 3,
      "componentType": 5126,
      "count": 723,
      "max": [
        1.0,
        0.9999995231628418,
        1.0,
        1.0
      ],
      "min": [
        -1.0,
        -1.0,
        -1.0,
        1.0
      ],
      "type": "VEC4"
    },
    {
      "bufferView": 1,
      "componentType": 5126,
      "count": 723,
      "max": [
        0.960938572883606,
        0.997326672077179
      ],
      "min": [
        0.0,
        0.0
      ],
      "type": "VEC2"
    },
    {
      "bufferView": 0,
      "componentType": 5125,
      "count": 1776,
      "type": "SCALAR"
    },
    {
      "bufferView": 2,
      "byteOffset": 17352,
      "componentType": 5126,
      "count": 8274,
      "max": [
        -37.64182662963867,
        3.866581916809082,
        6.815563201904297
      ],
      "min": [
        -72.89285278320313,
        -0.15774741768836975,
        -24.01559829711914
      ],
      "type": "VEC3"
    },
    {
      "bufferView": 2,
      "byteOffset": 116640,
      "componentType": 5126,
      "count": 8274,
      "max": [
        1.0,
        0.9999986886978149,
        0.9999736547470093
      ],
      "min": [
        -1.0,
        -0.9999726414680481,
        -0.9999557137489319
      ],
      "type": "VEC3"
    },
    {
      "bufferView": 3,
      "byteOffset": 11568,
      "componentType": 5126,
      "count": 8274,
      "max": [
        0.9999945759773254,
        0.9982715845108032,
        1.0,
        1.0
      ],
      "min": [
        -0.999919593334198,
        -1.0,
        -1.0,
        1.0
      ],
      "type": "VEC4"
    },
    {
      "bufferView": 1,
      "byteOffset": 5784,
      "componentType": 5126,
      "count": 8274,
      "max": [
        0.8421067595481873,
        0.9952560663223267
      ],
      "min": [
        0.0,
        0.0
      ],
      "type": "VEC2"
    },
    {
      "bufferView": 0,
      "byteOffset": 7104,
      "componentType": 5125,
      "count": 43806,
      "type": "SCALAR"
    },
    {
      "bufferView": 2,
      "byteOffset": 215928,
      "componentType": 5126,
      "count": 1323,
      "max": [
        -29.412429809570313,
        3.867478847503662,
        6.512104034423828
      ],
      "min": [
        -38.56827163696289,
        -0.03814965486526489,
        -23.43248748779297
      ],
      "type": "VEC3"
    },
    {
      "bufferView": 2,
      "byteOffset": 231804,
      "componentType": 5126,
      "count": 1323,
      "max": [
        0.9999389052391052,
        1.0,
        1.0
      ],
      "min": [
        -1.0,
        -1.0,
        -1.0
      ],
      "type": "VEC3"
    },
    {
      "bufferView": 3,
      "byteOffset": 143952,
      "componentType": 5126,
      "count": 1323,
      "max": [
        0.9999375939369202,
        1.0,
        0.999994695186615,
        1.0
      ],
      "min": [
        -0.9999375939369202,
        -0.9984093308448792,
        -0.9999403953552246,
        -1.0
      ],
      "type": "VEC4"
    },
    {
      "bufferView": 1,
      "byteOffset": 71976,
      "componentType": 5126,
      "count": 1323,
      "max": [
        0.9906449317932129,
        0.9797607064247131
      ],
      "min": [
        0.004468570463359356,
        0.008809924125671387
      ],
      "type": "VEC2"
    },
    {
      "bufferView": 0,
      "byteOffset": 182328,
      "componentType": 5125,
      "count": 2124,
      "type": "SCALAR"
    }
  ],
  "asset": {
    "extras": {
      "author": "Olli_one (https://sketchfab.com/Olli_one)",
      "license": "CC-BY-4.0 (http://creativecommons.org/licenses/by/4.0/)",
      "source": "https://sketchfab.com/3d-models/macintosh-a8a98ce5b4af43ca8f680cb1b005fc5d",
      "title": "macintosh"
    },
    "generator": "Sketchfab-12.65.0",
    "version": "2.0"
  },
  "bufferViews": [
    {
      "buffer": 0,
      "byteLength": 190824,
      "name": "floatBufferViews",
      "target": 34963
    },
    {
      "buffer": 0,
      "byteLength": 82560,
      "byteOffset": 190824,
      "byteStride": 8,
      "name": "floatBufferViews",
      "target": 34962
    },
    {
      "buffer": 0,
      "byteLength": 247680,
      "byteOffset": 273384,
      "byteStride": 12,
      "name": "floatBufferViews",
      "target": 34962
    },
    {
      "buffer": 0,
      "byteLength": 165120,
      "byteOffset": 521064,
      "byteStride": 16,
      "name": "floatBufferViews",
      "target": 34962
    }
  ],
  "buffers": [
    {
      "byteLength": 686184,
      "uri": "scene.bin"
    }
  ],
  "images": [
    {
      "uri": "textures/lambert1_baseColor.png"
    },
    {
      "uri": "textures/lambert1_metallicRoughness.png"
    },
    {
      "uri": "textures/lambert1_emissive.png"
    },
    {
      "uri": "textures/lambert1_normal.png"
    }
  ],
  "materials": [
    {
      "doubleSided": true,
      "emissiveFactor": [
        1.0,
        1.0,
        1.0
      ],
      "emissiveTexture": {
        "index": 2
      },
      "name": "lambert1",
      "normalTexture": {
        "index": 3
      },
      "occlusionTexture": {
        "index": 1
      },
      "pbrMetallicRoughness": {
        "baseColorTexture": {
          "index": 0
        },
        "metallicRoughnessTexture": {
          "index": 1
        }
      }
    }
  ],
  "meshes": [
    {
      "name": "one_lp_lambert1_0",
      "primitives": [
        {
          "attributes": {
            "NORMAL": 1,
            "POSITION": 0,
            "TANGENT": 2,
            "TEXCOORD_0": 3
          },
          "indices": 4,
          "material": 0,
          "mode": 4
        }
      ]
    },
    {
      "name": "tre_lp_lambert1_0",
      "primitives": [
        {
          "attributes": {
            "NORMAL": 6,
            "POSITION": 5,
            "TANGENT": 7,
            "TEXCOORD_0": 8
          },
          "indices": 9,
          "material": 0,
          "mode": 4
        }
      ]
    },
    {
      "name": "too_lp_lambert1_0",
      "primitives": [
        {
          "attributes": {
            "NORMAL": 11,
            "POSITION": 10,
            "TANGENT": 12,
            "TEXCOORD_0": 13
          },
          "indices": 14,
          "material": 0,
          "mode": 4
        }
      ]
    }
  ],
  "nodes": [
    {
      "children": [
        1
      ],
      "matrix": [
        1.0,
        0.0,
        0.0,
        0.0,
        0.0,
        2.220446049250313e-16,
        -1.0,
        0.0,
        0.0,
        1.0,
        2.220446049250313e-16,
        0.0,
        0.0,
        0.0,
        0.0,
        1.0
      ],
      "name": "Sketchfab_model"
    },
    {
      "children": [
        2
      ],
      "matrix": [
        1.0,
        0.0,
        0.0,
        0.0,
        0.0,
        0.0,
        1.0,
        0.0,
        0.0,
        -1.0,
        0.0,
        0.0,
        0.0,
        0.0,
        0.0,
        1.0
      ],
      "name": "lp.fbx"
    },
    {
      "children": [
        3,
        5,
        7
      ],
      "name": "RootNode"
    },
    {
      "children": [
        4
      ],
      "name": "one_lp"
    },
    {
      "mesh": 0,
      "name": "one_lp_lambert1_0"
    },
    {
      "children": [
        6
      ],
      "name": "tre_lp"
    },
    {
      "mesh": 1,
      "name": "tre_lp_lambert1_0"
    },
    {
      "children": [
        8
      ],
      "name": "too_lp"
    },
    {
      "mesh": 2,
      "name": "too_lp_lambert1_0"
    }
  ],
  "samplers": [
    {
      "magFilter": 9729,
      "minFilter": 9987,
      "wrapS": 10497,
      "wrapT": 10497
    }
  ],
  "scene": 0,
  "scenes": [
    {
      "name": "Sketchfab_Scene",
      "nodes": [
        0
      ]
    }
  ],
  "textures": [
    {
      "sampler": 0,
      "source": 0
    },
    {
      "sampler": 0,
      "source": 1
    },
    {
      "sampler": 0,
      "source": 2
    },
    {
      "sampler": 0,
      "source": 3
    }
  ]
}
